<svg width="22" height="16" viewBox="0 0 22 16" fill="none" xmlns="http://www.w3.org/2000/svg">
<path d="M21.0696 7.39167C19.0739 2.98292 15.1228 0 10.5988 0C6.07481 0 2.12269 2.985 0.128049 7.39208C0.0438628 7.58063 0 7.78894 0 8.00021C0 8.21148 0.0438628 8.41979 0.128049 8.60833C2.1238 13.0171 6.07481 16 10.5988 16C15.1228 16 19.075 13.015 21.0696 8.60792C21.1538 8.41937 21.1977 8.21106 21.1977 7.99979C21.1977 7.78852 21.1538 7.58021 21.0696 7.39167ZM10.5988 14C9.5507 14 8.52611 13.6481 7.65463 12.9888C6.78314 12.3295 6.1039 11.3925 5.7028 10.2961C5.3017 9.19974 5.19675 7.99334 5.40123 6.82946C5.60571 5.66557 6.11043 4.59647 6.85157 3.75736C7.59271 2.91824 8.53697 2.3468 9.56496 2.11529C10.5929 1.88378 11.6585 2.0026 12.6268 2.45672C13.5952 2.91085 14.4228 3.67988 15.0051 4.66658C15.5874 5.65327 15.8983 6.81331 15.8983 8C15.8986 8.78804 15.7617 9.56843 15.4955 10.2966C15.2293 11.0247 14.839 11.6863 14.3468 12.2435C13.8547 12.8007 13.2703 13.2427 12.6272 13.5441C11.9841 13.8455 11.2949 14.0004 10.5988 14ZM10.5988 4C10.2835 4.00499 9.97018 4.05811 9.66738 4.15792C9.91698 4.54195 10.0368 5.01454 10.005 5.48998C9.97322 5.96542 9.79201 6.41223 9.49423 6.74937C9.19645 7.08652 8.80181 7.29168 8.38188 7.32765C7.96196 7.36362 7.54455 7.22801 7.20536 6.94542C7.01221 7.75108 7.04708 8.60503 7.30505 9.38708C7.56302 10.1691 8.0311 10.8399 8.64342 11.305C9.25573 11.7701 9.98145 12.006 10.7184 11.9797C11.4554 11.9533 12.1665 11.666 12.7517 11.158C13.3368 10.6501 13.7666 9.94725 13.9805 9.14833C14.1943 8.3494 14.1815 7.49466 13.9438 6.7044C13.7062 5.91415 13.2556 5.22818 12.6555 4.74305C12.0555 4.25791 11.3362 3.99803 10.5988 4Z" fill="black"/>
</svg>
